HIERARCHY
ROOT pelvis
{
  OFFSET 0 100 0
  CHANNELS 6 Xposition Yposition Zposition Zrotation Xrotation Yrotation
  JOINT pelvis_right_femur
  {
    OFFSET -10.78128 -3.44521 -0.5502486
    CHANNELS 3 Zrotation Xrotation Yrotation
    JOINT right_femur_tibia
    {
      OFFSET -0.8047443 -44.0398 -0.1307829
      CHANNELS 3 Zrotation Xrotation Yrotation
      JOINT right_tibia_foot
      {
        OFFSET 3.006224 -47.83518 -5
        CHANNELS 3 Zrotation Xrotation Yrotation
        End Site
        {
          OFFSET 0 -5 15
        }
      }
    }
  }
  JOINT pelvis_left_femur
  {
    OFFSET 10.78128 -3.44521 -0.5502486
    CHANNELS 3 Zrotation Xrotation Yrotation
    JOINT left_femur_tibia
    {
      OFFSET 0.8047443 -44.0398 -0.1307829
      CHANNELS 3 Zrotation Xrotation Yrotation
      JOINT left_tibia_foot
      {
        OFFSET -4.370144 -48.10324 -4.275266
        CHANNELS 3 Zrotation Xrotation Yrotation
        End Site
        {
          OFFSET 0 -5 15
        }
      }
    }
  }
  JOINT pelvis_spine1
  {
    OFFSET 0 6.468898 -3.129235
    CHANNELS 3 Zrotation Xrotation Yrotation
    JOINT spine1
    {
      OFFSET 0 23.15396 4.99043
      CHANNELS 3 Zrotation Xrotation Yrotation
      JOINT spine2
      {
        OFFSET 0 20.79997 -5.064912
        CHANNELS 3 Zrotation Xrotation Yrotation
        JOINT neck
        {
          OFFSET 0 14.38658 9.616178
          CHANNELS 3 Zrotation Xrotation Yrotation
          End Site
          {
            OFFSET 0 20 0
          }
        }
      }
      JOINT right_manubrium
      {
        OFFSET -5.722621 16.35077 3.967754
        CHANNELS 3 Zrotation Xrotation Yrotation
        JOINT right_clavicle
        {
          OFFSET -13.16364 1.694482 -4.693211
          CHANNELS 3 Zrotation Xrotation Yrotation
          JOINT right_humerus
          {
            OFFSET -28.5034 -0.3100689 -2.792744
            CHANNELS 3 Zrotation Xrotation Yrotation
            JOINT right_radius
            {
              OFFSET -25.15693 0.02248979 -1.271978
              CHANNELS 3 Zrotation Xrotation Yrotation
              End Site
              {
                OFFSET -15 0 0
              }
            }
          }
        }
      }
      JOINT left_manubrium
      {
        OFFSET 5.722621 16.35077 3.967754
        CHANNELS 3 Zrotation Xrotation Yrotation
        JOINT left_clavicle
        {
          OFFSET 13.16364 1.694482 -4.693211
          CHANNELS 3 Zrotation Xrotation Yrotation
          JOINT left_humerus
          {
            OFFSET 29.39168 -1.063119 -2.237045
            CHANNELS 3 Zrotation Xrotation Yrotation
            JOINT left_radius
            {
              OFFSET 24.59957 -0.9528479 0.9047498
              CHANNELS 3 Zrotation Xrotation Yrotation
              End Site
              {
                OFFSET 15 -0 -0
              }
            }
          }
        }
      }
    }
  }
}
MOTION
Frames: 23
Frame Time: 0.0416666666667
0 103.5113 0 2.204643 -1.130353 0.2795891 1.189938 -10.02107 8.641973 -0 33.65229 -0 -5.244615 -17.83469 -2.161083 -8.058338 10.06585 -23.41979 -0 5.274803 -0 7.626458 -16.15465 26.49317 -4.353261 -5.08263 4.983191 2.029957 9.198459 -7.726909 0.8448427 22.80631 7.165585 3.256403 -23.08931 8.800878 6.355341 -19.72506 11.57262 86.32806 35.94585 -19.81649 -0 0 16.21475 -7.584459 8.251248 4.61458 5.533639 -19.50031 -1.676559 -94.76253 29.7369 22.86792 0 0 -16.03209 3.504284 17.90384 9.535968
0.3475855 103.5162 1.446946 2.103625 -0.8958848 0.483855 1.342817 -10.79083 8.384191 -0 31.90537 -0 -5.254356 -17.24648 -1.853895 -7.967233 10.14884 -23.1421 -0 5.622034 -0 7.380298 -16.39595 26.15262 -4.308266 -4.964513 4.974079 2.117935 9.142855 -7.72063 0.8790027 22.70662 7.168416 3.287056 -23.18307 8.814223 6.306956 -19.60684 11.56315 86.35797 35.92348 -19.91026 -0 0 16.04669 -7.637608 8.301144 4.633847 5.648802 -19.57716 -1.645752 -94.62837 29.67887 22.62826 0 0 -16.33901 3.557007 17.81622 9.476718
0.7106265 103.4673 3.062917 1.973134 -0.5658005 0.665774 1.524638 -11.75901 8.01266 -0 29.33866 -0 -5.273345 -16.42522 -1.401492 -7.853187 10.24945 -22.73113 -0 6.191434 -0 7.004001 -16.69835 25.63566 -4.243139 -4.82194 4.966018 2.230753 9.066226 -7.711076 0.9214812 22.5737 7.172807 3.329107 -23.29524 8.824944 6.234922 -19.43394 11.54676 86.41642 35.89143 -20.04897 -0 0 15.80169 -7.71497 8.377519 4.663606 5.800534 -19.68343 -1.605454 -94.43611 29.59444 22.29208 0 0 -16.74543 3.624432 17.69052 9.399065
1.092096 103.3554 4.898652 1.825471 -0.153593 0.8336669 1.710448 -12.81945 7.539344 -0 26.02115 -0 -5.307516 -15.41398 -0.8159196 -7.727262 10.34914 -22.19364 -0 7.010516 -0 6.495435 -17.02194 24.94321 -4.158581 -4.672003 4.96223 2.357894 8.973168 -7.697864 0.967299 22.41727 7.178554 3.379846 -23.4108 8.827914 6.14089 -19.21081 11.52353 86.50807 35.85072 -20.22847 -0 0 15.48639 -7.815863 8.480779 4.704806 5.975802 -19.81279 -1.559203 -94.1935 29.48454 21.87653 0 0 -17.21908 3.699897 17.53024 9.309839
1.494539 103.1761 6.998419 1.669446 0.320088 0.9970232 1.882543 -13.86748 6.981525 -0 22.08195 -0 -5.365037 -14.26798 -0.1197543 -7.596051 10.41879 -21.54065 -0 8.113212 -0 5.855269 -17.31727 24.08269 -4.053463 -4.526328 4.966159 2.489942 8.869358 -7.679951 1.011551 22.24691 7.184903 3.435848 -23.51713 8.81814 6.028625 -18.94458 11.49586 86.63224 35.80281 -20.43953 -0 0 15.11097 -7.94144 8.611024 4.759503 6.159838 -19.95699 -1.510885 -93.91161 29.34914 21.40428 0 0 -17.72612 3.776952 17.3385 9.216449
1.919523 102.9325 9.397501 1.511479 0.8233422 1.162347 2.029728 -14.77444 6.364419 -0 17.72832 -0 -5.455893 -13.0649 0.6515679 -7.461295 10.40754 -20.78629 -0 9.563683 -0 5.083764 -17.51135 23.06544 -3.92317 -4.392606 4.982695 2.616851 8.762539 -7.655014 1.048161 22.07394 7.190324 3.492295 -23.60133 8.789087 5.904647 -18.64507 11.46923 86.783 35.75035 -20.66617 -0 0 14.68928 -8.096293 8.768999 4.831994 6.332498 -20.10394 -1.465731 -93.60602 29.18685 20.90714 0 0 -18.22431 3.847938 17.11737 9.12868
2.36693 102.6392 12.12041 1.356987 1.312291 1.329316 2.147133 -15.37505 5.7217 -0 13.2437 -0 -5.589958 -11.90759 1.450631 -7.319537 10.23875 -19.94624 -0 11.4675 -0 4.180377 -17.50201 21.90586 -3.759072 -4.276097 5.01877 2.726955 8.662798 -7.619227 1.069272 21.91216 7.192474 3.542782 -23.64845 8.731806 5.77814 -18.32444 11.45217 86.95006 35.69759 -20.88567 -0 0 14.23823 -8.289095 8.956614 4.929297 6.466772 -20.23719 -1.430768 -93.2966 28.99504 20.42673 0 0 -18.6601 3.903298 16.86742 9.059438
2.834495 102.3251 15.18074 1.21126 1.738845 1.488859 2.236446 -15.49465 5.090563 -0 8.937606 -0 -5.773028 -10.90676 2.226287 -7.162761 9.825655 -19.03661 -0 13.94233 -0 3.150236 -17.17792 20.62528 -3.551309 -4.180085 5.082115 2.808425 8.5809 -7.568106 1.066659 21.77596 7.188629 3.580507 -23.64344 8.63669 5.659042 -17.99585 11.45424 87.12068 35.64953 -21.07227 -0 0 13.77618 -8.530551 9.176049 5.059717 6.533783 -20.33889 -1.413563 -93.00409 28.77098 20.00745 0 0 -18.97739 3.933202 16.58852 9.022355
3.317968 102.0308 18.58266 1.079936 2.063622 1.624512 2.303838 -15.00144 4.50266 -0 5.064255 -0 -6.002972 -10.15096 2.936517 -6.980864 9.097883 -18.07299 -0 17.05834 -0 2.0136 -16.45711 19.25813 -3.294285 -4.10548 5.179114 2.852179 8.525374 -7.497768 1.034564 21.67657 7.176347 3.600371 -23.57518 8.496905 5.554918 -17.6723 11.48272 87.28125 35.61013 -21.20221 -0 0 13.32153 -8.830202 9.427908 5.23046 6.512364 -20.39517 -1.419542 -92.74488 28.51347 19.68467 0 0 -19.13421 3.930628 16.2813 9.027313
3.811804 101.8012 22.3221 0.9700654 2.26293 1.716363 2.354298 -13.83495 3.977481 -0 1.7704 -0 -6.267859 -9.689651 3.556641 -6.764929 8.011313 -17.06957 -0 20.78946 -0 0.8109946 -15.31572 17.85693 -2.991866 -4.050199 5.31452 2.853186 8.500795 -7.404875 0.971769 21.62017 7.153588 3.600365 -23.43822 8.310381 5.468641 -17.36762 11.5406 87.4152 35.58132 -21.2529 -0 0 12.89474 -9.19648 9.709962 5.44721 6.39597 -20.39936 -1.449699 -92.5278 28.22321 19.47756 0 0 -19.11386 3.893177 15.94791 9.07753
4.310313 101.6749 26.38594 0.8923493 2.326741 1.746029 2.384629 -11.99748 3.52083 0 -0.9108046 0 -6.544366 -9.536199 4.080768 -6.509709 6.533693 -16.03869 -0 24.98576 -0 -0.3965462 -13.79895 16.49587 -2.661526 -4.008434 5.493712 2.809357 8.507902 -7.284841 0.8823222 21.60869 7.118049 3.581761 -23.23099 8.07947 5.397394 -17.1004 11.62637 87.49641 35.56304 -21.1946 -0 0 12.52504 -9.641266 10.01682 5.71651 6.194933 -20.35207 -1.499314 -92.3542 27.90216 19.38928 0 0 -18.92704 3.822951 15.59185 9.169144
4.809209 101.6726 30.74909 0.8631186 2.253275 1.70165 2.379017 -9.532042 3.126982 0 -3.043705 0 -6.796266 -9.678743 4.520176 -6.214391 4.624182 -14.99067 -0 29.36382 -0 -1.531663 -12.02164 15.27049 -2.336771 -3.970181 5.72532 2.719718 8.544487 -7.129855 0.7754687 21.64155 7.066335 3.548697 -22.95315 7.80968 5.332593 -16.89801 11.73471 87.48261 35.55361 -20.98135 -0 0 12.25682 -10.18501 10.33997 6.048683 5.935872 -20.25981 -1.557654 -92.21923 27.55245 19.41038 0 0 -18.60918 3.725565 15.21748 9.29205
5.307108 101.7882 35.37231 0.9023989 2.045411 1.58167 2.312058 -6.505162 2.784248 0 -4.758322 0 -6.978308 -10.08955 4.898797 -5.880764 2.231816 -13.93395 -0 33.54597 -0 -2.514723 -10.14945 14.28299 -2.062753 -3.922697 6.020704 2.58368 8.606385 -6.929458 0.6640627 21.71674 6.994145 3.507235 -22.60461 7.508419 5.261728 -16.79456 11.85774 87.31936 35.54972 -20.55419 -0 0 12.14621 -10.8553 10.66839 6.457399 5.656476 -20.13304 -1.609924 -92.11409 27.17609 19.5233 0 0 -18.21235 3.608684 14.82952 9.432133
5.806257 101.9888 40.20432 1.026661 1.710329 1.395634 2.159556 -2.998596 2.482902 0 -6.198743 0 -7.048334 -10.73078 5.24451 -5.509722 -0.6779755 -12.8749 -0 37.16388 -0 -3.285996 -8.353159 13.61301 -1.882673 -3.854766 6.38902 2.401886 8.688537 -6.674734 0.5609958 21.83067 6.897938 3.463758 -22.18721 7.183975 5.172692 -16.82049 11.98704 86.95831 35.54568 -19.86146 -0 0 12.24371 -11.67637 10.9902 6.954386 5.394299 -19.98321 -1.642063 -92.02911 26.77546 19.70776 0 0 -17.78974 3.479921 14.43272 9.575407
6.312614 102.2236 45.18865 1.241473 1.261012 1.161539 1.908283 0.8915172 2.221074 0 -7.471165 0 -6.978902 -11.55571 5.580107 -5.099843 -4.089334 -11.81847 -0 39.95483 -0 -3.818936 -6.76305 13.29617 -1.824181 -3.761393 6.831533 2.177489 8.785861 -6.363103 0.4758442 21.97731 6.776996 3.423533 -21.70716 6.845218 5.058005 -16.9915 12.11504 86.37671 35.53261 -18.88096 -0 0 12.57626 -12.65787 11.29458 7.543466 5.175986 -19.81986 -1.645495 -91.95648 26.35423 19.94532 0 0 -17.38047 3.344673 14.03143 9.712292
6.835928 102.4369 50.27281 1.538487 0.7186124 0.9010775 1.558182 5.047416 2.006132 0 -8.611457 0 -6.76023 -12.5036 5.9181 -4.650536 -7.912105 -10.77075 -0 41.78367 -0 -4.116889 -5.452537 13.32341 -1.894295 -3.646699 7.338182 1.916949 8.893595 -6.001053 0.4138402 22.14666 6.634889 3.390221 -21.17683 6.502601 4.916626 -17.3039 12.23493 85.58581 35.49832 -17.63005 -0 0 13.14071 -13.79069 11.57282 8.217756 5.012985 -19.64887 -1.619278 -91.89134 25.91835 20.22094 0 0 -17.00214 3.204453 13.62934 9.840333
7.389871 102.5806 55.41794 1.895409 0.1153857 0.6341895 1.119808 9.316636 1.85319 0 -9.569135 0 -6.397295 -13.49026 6.258418 -4.168997 -11.96631 -9.744224 -0 42.61154 -0 -4.203328 -4.445585 13.65022 -2.080495 -3.525232 7.885733 1.630493 9.007225 -5.605319 0.376516 22.32288 6.480455 3.36607 -20.61612 6.170027 4.75402 -17.73469 12.33942 84.63122 35.42854 -16.16706 -0 0 13.90534 -15.04775 11.81884 8.959304 4.902068 -19.47182 -1.570383 -91.83171 25.47714 20.52236 0 0 -16.64935 3.055688 13.22919 9.965623
7.991495 102.6253 60.60648 2.278549 -0.505252 0.3740757 0.610532 13.50937 1.781399 0 -10.21274 0 -5.906262 -14.40594 6.588104 -3.677357 -15.98813 -8.763221 -0 42.45944 -0 -4.113501 -3.73111 14.2074 -2.354661 -3.420576 8.438697 1.331803 9.122539 -5.20189 0.3626848 22.48412 6.327556 3.352095 -20.05197 5.865372 4.58101 -18.24482 12.42023 83.58682 35.30999 -14.58526 -0 0 14.81568 -16.38769 12.02971 9.740763 4.828283 -19.2864 -1.512454 -91.77788 25.04324 20.83899 0 0 -16.29701 2.889932 12.83269 10.10215
8.659338 102.565 65.84412 2.650518 -1.096642 0.1247382 0.04990413 17.42646 1.807341 0 -10.37561 0 -5.311154 -15.13478 6.885058 -3.213481 -19.68481 -7.863624 -0 41.38857 -0 -3.886709 -3.277765 14.91608 -2.680971 -3.358699 8.956625 1.035764 9.236145 -4.820422 0.3693713 22.60688 6.191975 3.348083 -19.51334 5.607191 4.410697 -18.78815 12.46954 82.53786 35.1348 -12.99303 -0 0 15.80676 -17.76289 12.20592 10.53071 4.771077 -19.0886 -1.461988 -91.73102 24.63034 21.16124 0 0 -15.91121 2.697048 12.44087 10.26694
9.410442 102.4141 71.15399 2.980652 -1.621885 -0.1172143 -0.5441153 20.90203 1.938172 0 -9.923265 0 -4.640403 -15.58529 7.124631 -2.822651 -22.81424 -7.08502 -0 39.49561 -0 -3.558994 -3.047952 15.70453 -3.026113 -3.358422 9.404778 0.7551807 9.346274 -4.486394 0.3926716 22.67327 6.08672 3.352693 -19.02372 5.409287 4.254567 -19.32283 12.48262 81.55981 34.90343 -11.48763 -0 0 16.8172 -19.12904 12.35116 11.30054 4.712178 -18.87628 -1.433324 -91.69098 24.24943 21.47913 0 0 -15.46545 2.470202 12.05462 10.47271
10.25723 102.1997 76.56626 3.251137 -2.062578 -0.3573217 -1.154975 23.81698 2.16819 0 -8.790463 0 -3.925229 -15.70365 7.282887 -2.546887 -25.22245 -6.461753 -0 36.91672 -0 -3.159663 -3.008928 16.51573 -3.365804 -3.425092 9.759156 0.4992008 9.453533 -4.2176 0.4281891 22.67546 6.019471 3.36379 -18.59676 5.277793 4.120786 -19.81616 12.45956 80.70978 34.62466 -10.14445 -0 0 17.79364 -20.4488 12.47201 12.02724 4.640873 -18.65263 -1.436355 -91.65293 23.90703 21.7778 0 0 -14.95325 2.209296 11.67526 10.72278
11.20467 101.9545 82.10659 3.45749 -2.42106 -0.5964457 -1.763625 26.07375 2.477839 0 -6.976224 0 -3.201458 -15.46395 7.333891 -2.418724 -26.82459 -6.018185 -0 33.84057 -0 -2.712308 -3.140297 17.30333 -3.685815 -3.548378 10.00367 0.2741022 9.561702 -4.02646 0.4707988 22.61641 5.993051 3.378743 -18.23633 5.211654 4.015257 -20.24076 12.40562 80.03433 34.31482 -9.026935 -0 0 18.68265 -21.68734 12.57868 12.69048 4.555639 -18.42922 -1.477818 -91.60315 23.60592 22.02969 0 0 -14.3954 1.922213 11.30508 11.00942
12.2481 101.7107 87.7852 3.606533 -2.718899 -0.8238901 -2.344115 27.5634 2.833319 0 -4.523099 0 -2.511777 -14.85211 7.2457 -2.459031 -27.56854 -5.767061 -0 30.5198 -0 -2.237332 -3.437784 18.02423 -3.980285 -3.702544 10.12496 0.08485285 9.678277 -3.924002 0.514208 22.50862 6.006996 3.394565 -17.93851 5.204398 3.943498 -20.56845 12.3311 79.58105 33.99715 -8.201605 -0 0 19.42015 -22.80626 12.68599 13.26858 4.463662 -18.22783 -1.563683 -91.51585 23.34663 22.18788 0 0 -13.84241 1.624654 10.94771 11.31419
